/* XPM */
static char *cb57015b73a740e8a933451826b5c635zd5xV6S1p9eG9XqU[] = {
/* columns rows colors chars-per-pixel */
"32 32 2 1 ",
"  c #1D1B1B",
". c #48B86D",
/* pixels */
"                                ",
" ..............  .............. ",
" ..............  .............. ",
" ..............  .............. ",
" ..............  .............. ",
" ..............  .............. ",
" .....    .....  .....    ..... ",
" .....    .....  .....    ..... ",
" .....    .....  .....    ..... ",
" .....    .....  .....    ..... ",
" ..............  .............. ",
" ..............  .............. ",
" ..............  .............. ",
" ..............  .............. ",
" ..............  .............. ",
"                                ",
"                                ",
" ..............  .............. ",
" ..............  .............. ",
" ..............  .............. ",
" ..............  .............. ",
" ..............  .............. ",
" .....    .....  .....    ..... ",
" .....    .....  .....    ..... ",
" .....    .....  .....    ..... ",
" .....    .....  .....    ..... ",
" ..............  .............. ",
" ..............  .............. ",
" ..............  .............. ",
" ..............  .............. ",
" ..............  .............. ",
"                                "
};
