/* XPM */
static char *_6e08f3f9d9e499ca5b1a3722d493329[] = {
/* columns rows colors chars-per-pixel */
"32 32 12 1 ",
"  c #758333",
". c #8A9A3D",
"X c #98B145",
"o c #809038",
"O c #5A672A",
"+ c #708535",
"@ c #657030",
"# c #91A643",
"$ c #828F38",
"% c #888D36",
"& c #ADBE4D",
"* c #B9DB5F",
/* pixels */
" .X...oO+oX..oo@o.##o..O+.X#..oO",
" .X#.ooO+.X#o.o@+.#....O+.X.o.+O",
" $##oooOo.X#o..@+o#...oO+o#.oo+@",
"$$##ooo@o.XX..o@oo#.o.oO+o#..oo@",
" $#.o.o@o.XX#.o@+oX.ooo@+.#..oo@",
" $#.o.o%&****&&%+.X#.o+Oo.#o.o+@",
"$$X...oO o..$$ O+.X#.ooO+.Xo..o@",
"$$X...oO+o##.o @+.X..o+O+#X#..o@",
"$.X#o..O+.##.ooO+oX#..+@o#XX#.o@",
"$.X#o..O+.#..o$Ooo##o.o%&****&&%",
"$.X#o..Oo.X...$Oo.##o..O $..$  O",
"$.##..o@o.X.o.$Oo.#....Oo.##.o$@",
"$.#.o.o@o.X#oo$Oo.#....@o.#..o$O",
" .#.o.o@o.X#.ooOo.#...oOo.#...$O",
"$$X...o@ooX#.oo@o.#.o.oOo.#.o.$O",
" $X...o@oo##..o@+.#.o.$@oo#.o.oO",
" $X#.oo@oo##o.o@+.#.o.$@$o##o.oO",
" .X#.oo@o.#.o.o@+.##..$@$oX#..oO",
"$#XX#oo@+.#.o..@ooX#..$@$.X...o@",
"&****&&%+.X....@+oX..o$@$.#..oo@",
" ....  O+oX....@+oX..o$@$.X..ooO",
" .X#..$OooX....@+oX#.oo@+.X.oooO",
" $X...$@ooX#..o@+.X#..o@+#X#o.oO",
"$$X.o..Oo.X#o.o@+.XX..o@+.X#..oO",
" $X#o..Oo.##o..@o#XX#..@+.X#..oO",
"$$##o.o@+.#.o.o%&****&&%+o##..oO",
"$.X#.oo@+.#...oO $..$$ Ooo#....O",
"$.X#.oo@o.#...oO+o#.oo$Oo.#.o..@",
" .##..oO+.#...oO+.#..o$@o.##o..@",
" $#...o@+.##..o@o.#..o$@+.#.o.o@",
" $#.o.oO+oX#.oo@o.##..$@o.X...oO",
" .#.o..O+oX..oo@o.##o.o@+.X#..oO"
};
