/* XPM */
static char *ad3cab9588404bf28e26cab519dc7e0dkCxw7yQchOjeCWH5[] = {
/* columns rows colors chars-per-pixel */
"32 32 2 1 ",
"  c #1D1B1B",
". c #E76868",
/* pixels */
"                                ",
" ..............  .............. ",
" ..............  .............. ",
" ..............  .............. ",
" ..............  .............. ",
" ..............  .............. ",
" .....    .....  .....    ..... ",
" .....    .....  .....    ..... ",
" .....    .....  .....    ..... ",
" .....    .....  .....    ..... ",
" ..............  .............. ",
" ..............  .............. ",
" ..............  .............. ",
" ..............  .............. ",
" ..............  .............. ",
"                                ",
"                                ",
" ..............  .............. ",
" ..............  .............. ",
" ..............  .............. ",
" ..............  .............. ",
" ..............  .............. ",
" .....    .....  .....    ..... ",
" .....    .....  .....    ..... ",
" .....    .....  .....    ..... ",
" .....    .....  .....    ..... ",
" ..............  .............. ",
" ..............  .............. ",
" ..............  .............. ",
" ..............  .............. ",
" ..............  .............. ",
"                                "
};
