/* XPM */
static char *b639c8f94f124362a922c61672a3657avejaiI236XSBm0cX[] = {
/* columns rows colors chars-per-pixel */
"32 32 8 1 ",
"  c white",
". c #FF00FF",
"X c #F0EEEB",
"o c #00FF00",
"O c #FFFF00",
"+ c #BEBEAE",
"@ c #00FFFF",
"# c #36342A",
/* pixels */
"ooXXOOXXoooXooX XoX   XXXX  XXXX",
"XooOoXX  XXX   XXX   XXOOXX    X",
"ooXXXooXX  XX     XX  XXooooXX  ",
"   XXXoOXX         XXXoOOoXXX   ",
"  XX  XXX       XXXXooXXXXXX    ",
"     XXOOOXX     XX   XXXooOXX  ",
"   Xoo++o++ooXXXo    XX  XXX    ",
"X XXXXXo@####@++o        XX    X",
"XX  XoXXo@######@o XX     XXXXXX",
"oXXXXXo++o+#@@#@++XX    XXXo@#@o",
"@+oXXoXXXOOXXXOoo++ooXXooo@##@@#",
"###@oooXXXXXXXXXXoX XoooXoo+@###",
"##@+XXoOoX XooXXXX    XXXX..o++@",
"+o+XXXX    X..ooXXX     XXoo++oo",
"XoOOoX  XX...  ..ooX   XXX.oX  X",
"  XXooXXX        ..o..XOo..     ",
"XXXXXXX      ...ooX.  XXX...    ",
" XXXoooX      oo.       ..  .   ",
"  ooXXXOO.  ...     ..     .XXX ",
"X   X   ....   .   ..     .XooXX",
"XooXX.        .XXXooXXO..OOoX  X",
"XXooXX..        XXX   XOOOX   XX",
"oo.XXXX  XX  XXX  XX       XXXXX",
"X  XXXXX.XXooX              XXXX",
"oX  XooXXoooXX     XX     X.ooOO",
"OOoooXXXXX    XXXX  ......+@@#@+",
"@@+oXXX  XX     XoOOo..oo+@#####",
"##@oXXXX         XX.OOoo@@##@@##",
"@##@oXXooXooX   XX XX.o@@++ooo+@",
"++@##+ooXXX         XXXooXXXXooo",
"XXoo+@++o  X       XooXXXXXXooXX",
"XXXXXooO+oXXXX  XXoooXooXXooXXXX"
};
