/* XPM */
static char *_d2668088862422ca1efcb1d73455845YAQ1W9FQAmVhOxoY[] = {
/* columns rows colors chars-per-pixel */
"32 32 2 1 ",
"  c #1D1B1B",
". c #6ACBCB",
/* pixels */
"                                ",
" ..............  .............. ",
" ..............  .............. ",
" ..............  .............. ",
" ..............  .............. ",
" ..............  .............. ",
" .....    .....  .....    ..... ",
" .....    .....  .....    ..... ",
" .....    .....  .....    ..... ",
" .....    .....  .....    ..... ",
" ..............  .............. ",
" ..............  .............. ",
" ..............  .............. ",
" ..............  .............. ",
" ..............  .............. ",
"                                ",
"                                ",
" ..............  .............. ",
" ..............  .............. ",
" ..............  .............. ",
" ..............  .............. ",
" ..............  .............. ",
" .....    .....  .....    ..... ",
" .....    .....  .....    ..... ",
" .....    .....  .....    ..... ",
" .....    .....  .....    ..... ",
" ..............  .............. ",
" ..............  .............. ",
" ..............  .............. ",
" ..............  .............. ",
" ..............  .............. ",
"                                "
};
