/* XPM */
static char *_75e6a9918c547369d25a4d90c4e80feo8IkcuVjNBG43tYx[] = {
/* columns rows colors chars-per-pixel */
"32 32 4 1 ",
"  c #111111",
". c #414B66",
"X c #242A3D",
"o c #677598",
/* pixels */
"                                ",
" ...XX........XX....XX......... ",
" ...oX..o....oX.....oX..o.....o ",
" .oooXoo...oooXo..oooXoo....ooo ",
" ooo.XXooooooXX.oooo.XXooooooo  ",
"  .....XXX........XXXXXXXXX.... ",
" .......X.........oX.....X..... ",
" .......Xo......ooo......Xo...o ",
" o.....oXooooooooo...o..oXooooo ",
" oo..ooXXXooooooo.Xo..ooXXXooo  ",
"  ooooXXXXXXXXXXXXX.oooXXXXXXX  ",
"  ......XXX......XXX....XXX.... ",
" ......o.X...o....X....o.X..... ",
" .....oooX.....oooX.....oX..... ",
" o...ooooX...oooooXo..oooX....o ",
" Xoooooo.XXooooooXXXoooo.XXoooo ",
" ooooXX.ooooXXXooooooXX.ooooooX ",
" o....Xooo..oXooooo...Xoooo...o ",
" .....Xo.....Xooo.....Xooo..... ",
" .....X.o....X....o...X.o...... ",
" ....XXX....XXX......XXX......  ",
"  XXXXXXXooo.XXXXXXXXXXXXXoooo  ",
"  oooXXXoo..oX.oooooooXXXoo..oo ",
" oooooXo..o...oooooooooXo.....o ",
" o...oX......ooo......oX....... ",
" .....X.....Xo.........X....... ",
" ....XXXXXXXXX........XXX.....  ",
"  oooooooXX.oooo.XXooooooXX.ooo ",
" ooo....ooXooo..oXooo...ooXooo. ",
" o.....o..Xo.....Xo....o..Xo... ",
" .........XX....XX........XX... ",
"                                "
};
