/* XPM */
static char *_51b226b2e0d460db0222de21bb352f2[] = {
/* columns rows colors chars-per-pixel */
"32 32 8 1 ",
"  c #6EC59F",
". c #59B292",
"X c #4FAB90",
"o c #3E816B",
"O c #53A178",
"+ c #4C9484",
"@ c #396E59",
"# c #3B6655",
/* pixels */
"     . ...   .          ..XXXXXo",
" .....XXXOO++++++OOXX..XXOOOO++@",
" ...X...XXOO+O++OX.X..XXOOOO++O@",
" .X  +...XXOO++X..X...X.XO  ++O@",
" .XXOoX...XO++O..XX..X.XOOXOoOO@",
" XX+ooOX..XX+OX..X...XXOOO+ooO+@",
" XOOOOO...XXOX..X...XXOOOXOOO++#",
" XOOXOOX...XOX.X...XXOOXXOOO++O#",
" OOXXOOXX..XX.....X.XXXXOXO+OOO@",
" OOX.XOO.X..X......XX.XOXOOOXOO#",
" XOX..XOX...XX....XX..XXXOOXOOO#",
" .X....XX....X...XX..X.XOOXOOO+#",
" .X..X..X.......X....XXOOXOXO++#",
" ...X...............XXOOXXXO++O#",
" ..XX..............X.XX..XOOOO+#",
" X.X................XX...OOXXO+#",
" X......X.....X.....X...XOXXOOO@",
" XX.....X.X...XX.......XOX.OOXO#",
" X..X...XX.....X.......XX..OXXO@",
" ...XX..XX......X.....XXX..XXOO@",
" .X..X...XX.X........XXX.X..XOO@",
" XX..XX...X.XX....X...X..XX.OOO@",
" XXX..XX..XX.X..X.O..X..XOXO+XO@",
" OXXX.XX.X.X...XX.OX...XXOOO+OO@",
" OOXXX.XX.OXX.OX..+X..XXOOO++OX#",
" XOOOXXX.XOOXOX..X+XX.XOOX++OX.#",
" XO  +X..X+OOOX..O+XO.XOX+  +..#",
" OOXOoO.XO++OXX.X++OOXXXXOXOo.X#",
"XO++ooOXX+O+OO..O+OO+OX.XO+ooXX@",
"XOOO+OXXOOO++O.X++O+++XX..OOXX.@",
" XXXOOOOO+++++OXO++OO++XX..XXXO@",
".@@@@@@##@##@@@########@@@@#@##@"
};
