/* XPM */
static char *_2e27015ef80422a948cf4b88d695519KXMSw4AT37dyRkhM[] = {
/* columns rows colors chars-per-pixel */
"32 32 2 1 ",
"  c #1D1B1B",
". c #D2D968",
/* pixels */
"                                ",
" ..............  .............. ",
" ..............  .............. ",
" ..............  .............. ",
" ..............  .............. ",
" ..............  .............. ",
" .....    .....  .....    ..... ",
" .....    .....  .....    ..... ",
" .....    .....  .....    ..... ",
" .....    .....  .....    ..... ",
" ..............  .............. ",
" ..............  .............. ",
" ..............  .............. ",
" ..............  .............. ",
" ..............  .............. ",
"                                ",
"                                ",
" ..............  .............. ",
" ..............  .............. ",
" ..............  .............. ",
" ..............  .............. ",
" ..............  .............. ",
" .....    .....  .....    ..... ",
" .....    .....  .....    ..... ",
" .....    .....  .....    ..... ",
" .....    .....  .....    ..... ",
" ..............  .............. ",
" ..............  .............. ",
" ..............  .............. ",
" ..............  .............. ",
" ..............  .............. ",
"                                "
};
